<svg xmlns="http://www.w3.org/2000/svg" xmlns:xlink="http://www.w3.org/1999/xlink" width="500" zoomAndPan="magnify" viewBox="0 0 375 374.999991" height="500" preserveAspectRatio="xMidYMid meet" version="1.0"><defs><clipPath id="e0745859a7"><path d="M 172.414062 58.960938 L 208.609375 58.960938 L 208.609375 136.441406 L 172.414062 136.441406 Z M 172.414062 58.960938 " clip-rule="nonzero"/></clipPath><clipPath id="c38f0e2738"><path d="M 189.664062 58.960938 L 191.359375 58.960938 C 195.933594 58.960938 200.320312 60.777344 203.558594 64.011719 C 206.792969 67.25 208.609375 71.636719 208.609375 76.210938 L 208.609375 119.070312 C 208.609375 123.644531 206.792969 128.03125 203.558594 131.269531 C 200.320312 134.503906 195.933594 136.320312 191.359375 136.320312 L 189.664062 136.320312 C 185.089844 136.320312 180.703125 134.503906 177.46875 131.269531 C 174.230469 128.03125 172.414062 123.644531 172.414062 119.070312 L 172.414062 76.210938 C 172.414062 71.636719 174.230469 67.25 177.46875 64.011719 C 180.703125 60.777344 185.089844 58.960938 189.664062 58.960938 Z M 189.664062 58.960938 " clip-rule="nonzero"/></clipPath><clipPath id="47170d38a6"><path d="M 165.339844 244.65625 L 201.53125 244.65625 L 201.53125 322 L 165.339844 322 Z M 165.339844 244.65625 " clip-rule="nonzero"/></clipPath><clipPath id="d8721c8605"><path d="M 182.589844 244.65625 L 184.28125 244.65625 C 188.859375 244.65625 193.246094 246.472656 196.480469 249.707031 C 199.714844 252.941406 201.53125 257.332031 201.53125 261.90625 L 201.53125 304.765625 C 201.53125 309.339844 199.714844 313.726562 196.480469 316.960938 C 193.246094 320.199219 188.859375 322.015625 184.28125 322.015625 L 182.589844 322.015625 C 178.011719 322.015625 173.625 320.199219 170.390625 316.960938 C 167.15625 313.726562 165.339844 309.339844 165.339844 304.765625 L 165.339844 261.90625 C 165.339844 257.332031 167.15625 252.941406 170.390625 249.707031 C 173.625 246.472656 178.011719 244.65625 182.589844 244.65625 Z M 182.589844 244.65625 " clip-rule="nonzero"/></clipPath></defs><path fill="#405cfa" d="M 226.085938 30.308594 L 226.085938 150.671875 C 226.085938 158.03125 220.089844 164.027344 212.730469 164.027344 L 162.109375 164.027344 C 154.75 164.027344 148.753906 158.03125 148.753906 150.671875 L 148.753906 92.929688 L 92.128906 92.929688 L 92.128906 325.816406 L 46.625 299.585938 C 45.664062 299.023438 44.785156 298.464844 43.90625 297.90625 C 43.90625 297.90625 43.824219 297.90625 43.824219 297.824219 C 43.347656 297.503906 42.867188 297.183594 42.386719 296.863281 C 41.90625 296.546875 41.425781 296.226562 41.027344 295.824219 C 40.546875 295.503906 40.148438 295.105469 39.667969 294.785156 C 39.1875 294.464844 38.789062 294.066406 38.386719 293.667969 C 37.988281 293.265625 37.507812 292.945312 37.109375 292.546875 C 36.707031 292.148438 36.386719 291.828125 35.988281 291.425781 L 35.828125 291.265625 C 35.429688 290.867188 35.027344 290.46875 34.707031 290.066406 C 34.308594 289.667969 33.910156 289.265625 33.589844 288.867188 C 33.1875 288.46875 32.871094 288.066406 32.46875 287.589844 C 32.148438 287.269531 31.910156 286.949219 31.589844 286.546875 C 31.429688 286.386719 31.269531 286.148438 31.191406 285.988281 C 30.949219 285.75 30.789062 285.429688 30.550781 285.1875 C 30.46875 285.109375 30.390625 284.949219 30.308594 284.867188 C 30.070312 284.46875 29.75 284.148438 29.511719 283.75 C 29.429688 283.667969 29.351562 283.507812 29.269531 283.429688 C 29.03125 283.03125 28.789062 282.710938 28.550781 282.308594 C 28.550781 282.230469 28.472656 282.230469 28.472656 282.148438 C 28.230469 281.75 27.910156 281.269531 27.671875 280.871094 C 27.671875 280.871094 27.589844 280.789062 27.589844 280.710938 C 27.351562 280.230469 27.03125 279.832031 26.792969 279.351562 C 26.792969 279.351562 26.792969 279.351562 26.792969 279.269531 C 26.550781 278.789062 26.230469 278.3125 25.992188 277.832031 C 25.75 277.429688 25.59375 276.953125 25.351562 276.550781 C 25.273438 276.390625 25.191406 276.230469 25.113281 276.070312 C 24.953125 275.671875 24.710938 275.273438 24.550781 274.792969 C 24.3125 274.3125 24.152344 273.832031 23.914062 273.351562 C 23.914062 273.273438 23.832031 273.191406 23.832031 273.113281 C 23.671875 272.632812 23.433594 272.152344 23.273438 271.671875 C 23.113281 271.191406 22.953125 270.714844 22.792969 270.234375 C 22.710938 270.074219 22.710938 269.914062 22.632812 269.753906 C 22.472656 269.355469 22.394531 268.875 22.234375 268.472656 C 22.234375 268.472656 22.234375 268.394531 22.234375 268.394531 C 22.074219 267.914062 21.992188 267.433594 21.832031 266.875 C 21.832031 266.792969 21.753906 266.714844 21.753906 266.632812 C 21.671875 266.15625 21.511719 265.753906 21.433594 265.273438 C 21.433594 265.195312 21.351562 265.113281 21.351562 264.957031 C 21.273438 264.554688 21.191406 264.074219 21.113281 263.675781 C 21.035156 263.117188 20.875 262.636719 20.792969 262.074219 C 20.714844 261.515625 20.632812 260.957031 20.554688 260.476562 C 20.472656 259.917969 20.394531 259.355469 20.394531 258.796875 C 20.234375 257.039062 20.152344 255.277344 20.152344 253.4375 L 20.152344 121.5625 C 20.152344 107.324219 25.832031 93.808594 35.667969 83.972656 C 36.867188 82.773438 38.148438 81.574219 39.507812 80.453125 C 40.386719 79.734375 41.347656 79.015625 42.304688 78.296875 C 43.746094 77.253906 45.183594 76.296875 46.785156 75.414062 L 160.828125 9.515625 C 177.304688 0 197.617188 0 214.089844 9.515625 C 214.171875 9.597656 214.25 9.675781 214.410156 9.675781 C 216.410156 10.875 218.171875 12.316406 219.691406 13.914062 C 220.890625 15.273438 222.007812 16.714844 222.886719 18.234375 C 224.96875 21.914062 226.085938 26.070312 226.085938 30.308594 Z M 226.085938 30.308594 " fill-opacity="1" fill-rule="nonzero"/><path fill="#405cfa" d="M 354.847656 121.5625 L 354.847656 253.4375 C 354.847656 272.472656 344.691406 290.066406 328.214844 299.585938 L 214.089844 365.484375 C 197.617188 375 177.304688 375 160.828125 365.484375 C 153.390625 361.164062 148.832031 353.246094 148.832031 344.691406 L 148.832031 221.769531 C 148.832031 214.410156 154.832031 208.414062 162.1875 208.414062 L 212.730469 208.414062 C 220.089844 208.414062 226.085938 214.410156 226.085938 221.769531 L 226.085938 282.230469 L 282.789062 282.230469 L 282.789062 49.183594 L 328.296875 75.414062 C 344.691406 84.933594 354.847656 102.527344 354.847656 121.5625 Z M 354.847656 121.5625 " fill-opacity="1" fill-rule="nonzero"/><g clip-path="url(#e0745859a7)"><g clip-path="url(#c38f0e2738)"><path fill="#405cfa" d="M 172.414062 58.960938 L 208.609375 58.960938 L 208.609375 136.300781 L 172.414062 136.300781 Z M 172.414062 58.960938 " fill-opacity="1" fill-rule="nonzero"/></g></g><g clip-path="url(#47170d38a6)"><g clip-path="url(#d8721c8605)"><path fill="#405cfa" d="M 165.339844 244.65625 L 201.53125 244.65625 L 201.53125 321.992188 L 165.339844 321.992188 Z M 165.339844 244.65625 " fill-opacity="1" fill-rule="nonzero"/></g></g></svg>